<svg fill="none" height="49" viewBox="0 0 48 49" width="48" xmlns="http://www.w3.org/2000/svg"><path d="m4 24.5c0 11.0457 8.9543 20 20 20s20-8.9543 20-20-8.9543-20-20-20-20 8.9543-20 20z" fill="#1575e5"/><path d="m19.1969 35.5002c-4.2367-1.8524-7.1971-6.0806-7.1971-11.0002 0-1.8471.4173-3.5966 1.1628-5.1596l-1.8369-5.2432c-.2771-.791.4834-1.5515 1.2744-1.2744l4.7722 1.6718c1.899-1.2604 4.1775-1.9946 6.6275-1.9946s4.7285.7342 6.6275 1.9946l4.7721-1.6718c.791-.2771 1.5515.4834 1.2744 1.2744l-1.8368 5.2432c.7455 1.563 1.1628 3.3125 1.1628 5.1596 0 4.9193-2.96 9.1472-7.1961 10.9998 2.6387 1.1537 4.7823 3.2291 6.024 5.8191-3.1206 2.0129-6.8373 3.1811-10.8269 3.1811-3.9897 0-7.7064-1.1682-10.827-3.1811 1.2415-2.5897 3.3848-4.6649 6.0231-5.8187z" fill="#a6cfff"/><g clip-rule="evenodd" fill="#1575e5" fill-rule="evenodd"><path d="m21.0002 27.5c.5523 0 1 .4477 1 1 0 1.1046.8954 2 2 2 1.1045 0 2-.8954 2-2 0-.5523.4477-1 1-1s1 .4477 1 1c0 2.2092-1.7909 4-4 4-2.2092 0-4-1.7908-4-4 0-.5523.4477-1 1-1z"/><path d="m31.5968 24.0264c-.5335.1429-1.0818-.1736-1.2247-.7071-.2859-1.0669-1.3826-1.7001-2.4495-1.4142-.5335.1429-1.0818-.1737-1.2248-.7071-.1429-.5335.1737-1.0818.7071-1.2248 2.1339-.5717 4.3272.6946 4.899 2.8285.1429.5334-.1736 1.0818-.7071 1.2247z"/><path d="m16.4035 24.0264c.5335.1429 1.0818-.1736 1.2248-.7071.2859-1.0669 1.3825-1.7001 2.4495-1.4142.5334.1429 1.0818-.1737 1.2247-.7071.143-.5335-.1736-1.0818-.7071-1.2248-2.1339-.5717-4.3272.6946-4.899 2.8285-.1429.5334.1737 1.0818.7071 1.2247z"/></g></svg>