<svg id="SvgjsSvg1001" width="256" height="256" xmlns="http://www.w3.org/2000/svg" version="1.1" xmlns:xlink="http://www.w3.org/1999/xlink" xmlns:svgjs="http://svgjs.com/svgjs"><defs id="SvgjsDefs1002"></defs><g id="SvgjsG1008"><svg xmlns="http://www.w3.org/2000/svg" viewBox="0 0 16.933 16.933" width="256" height="256"><path style="-inkscape-stroke:none" d="m14.816 16.404c0.87487 0 1.588-0.7131 1.588-1.588v-12.699c0-0.87487-0.7131-1.588-1.588-1.588h-10.054c-0.87487 1e-8 -1.5854 0.7131-1.5854 1.588v8.5305c-0.10874 0.0232-0.21659 0.05005-0.32348 0.08061l-1.1503-1.0154c-0.22064-0.19476-0.52493-0.22102-0.75858-0.11523-0.23365 0.10578-0.41624 0.35032-0.41495 0.64438l0.015502 3.2519c-3.415e-4 0.0077-3.415e-4 0.01551 0 0.02325 0.14898 1.6297 1.5201 2.8834 3.1589 2.8871zm-10.054-15.345h10.054c0.59087 0 1.0588 0.46743 1.0588 1.0583v12.699c0 0.59087-0.46794 1.0588-1.0588 1.0588h-9.3635c0.77865-0.51641 1.3207-1.3673 1.4112-2.3574 0.00103-0.0077 0.00172-0.01548 0.00207-0.02325l0.011369-2.6473c5.161e-4 1.74e-4 0.00103 3.47e-4 0.00155 5.17e-4h5.8201c0.14632 8.59e-4 0.26556-0.11722 0.26612-0.26354 5.77e-4 -0.14713-0.11899-0.26647-0.26612-0.26561h-5.8196l5.168e-4 -0.07596c0.0012938-0.29403-0.18132-0.53661-0.41495-0.64232-0.23363-0.10572-0.53651-0.08165-0.75703 0.11317l-1.1456 1.0139c-0.28019-0.079111-0.56505-0.14234-0.85677-0.14262v-8.4669c0-0.59087 0.46536-1.0583 1.0562-1.0583zm5.0274 0.79269c-2.0425 0-3.703 1.6625-3.703 3.7051s1.6605 3.703 3.703 3.703c2.0425 0 3.7051-1.6605 3.7051-3.703s-1.6625-3.7051-3.7051-3.7051zm0 0.52915c1.7566 0 3.1759 1.4194 3.1759 3.1759s-1.4194 3.1733-3.1759 3.1733-3.1739-1.4168-3.1739-3.1733 1.4173-3.1759 3.1739-3.1759zm0 0.79527c-0.72747 0-1.3224 0.59437-1.3224 1.3218 5.665e-4 0.14531 0.11823 0.26297 0.26354 0.26354 0.14632 8.584e-4 0.26556-0.11722 0.26612-0.26354 0-0.44149 0.3512-0.79269 0.79269-0.79269 0.44149 3e-7 0.79476 0.3512 0.79476 0.79269 0 0.33343-0.20451 0.6155-0.49194 0.7343-0.27536 0.11381-0.56636 0.36021-0.56636 0.73843v0.64438c5.665e-4 0.14531 0.11823 0.26297 0.26354 0.26354 0.14612 5.717e-4 0.26504-0.11742 0.26561-0.26354v-0.64438c0-0.079515 0.0953-0.19018 0.24029-0.25011 0.48071-0.19869 0.81853-0.67322 0.81853-1.2226 0-0.72747-0.59696-1.3218-1.3244-1.3218zm5.167e-4 4.2322c-0.21918-1e-7 -0.39686 0.17768-0.39686 0.39686 0 0.21918 0.17768 0.39686 0.39686 0.39686 0.21918 0 0.39686-0.17768 0.39686-0.39686 0-0.21918-0.17768-0.39686-0.39686-0.39686zm-8.5341 2.6545c0.031215 0.0037 0.062939 0.01813 0.095082 0.04651l1.2438 1.0976c0.071704 0.06298 0.17181 0.08253 0.26199 0.05116 0.27275-0.09433 0.55832-0.14257 0.84695-0.14469 0.29084 2.79e-4 0.57951 0.04657 0.8547 0.14056 0.090087 0.03151 0.19018 0.01216 0.26199-0.05064l1.2381-1.094c0.064205-0.05672 0.12613-0.05674 0.18758-0.02894 0.061453 0.02781 0.10424 0.07407 0.10387 0.15968l-0.013952 3.2286c-0.12449 1.3618-1.261 2.4019-2.6302 2.406-1.3701-0.0031-2.5083-1.0435-2.6328-2.406l-0.013436-3.2286c-3.771e-4 -0.08568 0.041837-0.13183 0.10335-0.15968 0.030757-0.01392 0.0618-0.02128 0.093015-0.01757zm6.4185 2.3724c-0.14612-5.72e-4 -0.26504 0.11742-0.26561 0.26354-8.633e-4 0.14713 0.11848 0.2667 0.26561 0.26612h4.2322c0.14632-5.69e-4 0.2644-0.1198 0.26354-0.26612-5.67e-4 -0.14532-0.11823-0.26298-0.26354-0.26354zm-4.8957 0.79372c-0.21918 0-0.39686 0.17768-0.39686 0.39686s0.17768 0.39686 0.39686 0.39686c0.21918 0 0.39686-0.17768 0.39686-0.39686s-0.17768-0.39686-0.39686-0.39686zm1.852 0c-0.21918 0-0.39686 0.17768-0.39686 0.39686s0.17768 0.39686 0.39686 0.39686 0.39686-0.17768 0.39686-0.39686-0.17768-0.39686-0.39686-0.39686zm3.0436 1.3234c-0.14612-5.72e-4 -0.26504 0.11742-0.26561 0.26354-8.627e-4 0.14713 0.11848 0.2667 0.26561 0.26612h4.2322c0.14632-5.69e-4 0.2644-0.1198 0.26354-0.26612-5.67e-4 -0.14531-0.11823-0.26298-0.26354-0.26354z" color="#000" fill="#000000" class="color000 svgShape"></path></svg></g></svg>