<svg xmlns="http://www.w3.org/2000/svg" viewBox="0 0 60 60" width="256" height="256"><path fill="#fd0000" d="M47 6H13c-1.65 0-3 1.35-3 3v42c0 1.65 1.35 3 3 3h34c1.65 0 3-1.35 3-3V9c0-1.65-1.35-3-3-3zM32 16c-1.65 0-3-1.35-3-3s1.35-3 3-3h2c.55 0 1 .45 1 1s-.45 1-1 1h-2c-.55 0-1 .45-1 1s.45 1 1 1c1.65 0 3 1.35 3 3s-1.35 3-3 3h-2c-.55 0-1-.45-1-1s.45-1 1-1h2c.55 0 1-.45 1-1s-.45-1-1-1zm2.47 16.31c-.72-.33-1.21-.86-1.43-1.52-.23-.71-.14-1.52.28-2.41.79-1.67 2.86-3.55 4.43-2.81 1.29.61 1.06 2.09.87 3.27-.06.39-.12.79-.15 1.19-.07 1.3-.71 1.93-1.23 2.24-.43.26-.91.36-1.36.36-.53 0-1.04-.14-1.41-.32zm1.34 4.77c0 .86-.23 1.49-.72 1.92-.48.42-1.06.55-1.72.55-.46 0-.95-.06-1.47-.12a16.1 16.1 0 0 0-3.8 0c-1.28.15-2.39.28-3.19-.43-.49-.43-.72-1.06-.72-1.92 0-1.3.76-2.51 1.55-3.64.83-1.19 2.16-2.77 4.26-2.77 2.04 0 3.35 1.5 4.26 2.81.69 1 1.55 2.24 1.55 3.6zm-8.58-10.44c.07-.89.4-1.88.88-2.67.64-1.05 1.45-1.58 2.29-1.51 1.42.12 1.72 1.58 1.96 2.76.08.38.16.78.28 1.17.37 1.24 0 2.06-.38 2.53-.61.76-1.58 1.02-2.33 1.02-.09 0-.17-.01-.25-.01-1.31-.12-2.65-1.04-2.45-3.29zm-.27 4.15c-.22.66-.71 1.19-1.43 1.52-.37.18-.88.32-1.41.32-.45 0-.93-.1-1.36-.36-.52-.31-1.16-.94-1.23-2.24-.03-.4-.09-.8-.15-1.19-.19-1.18-.42-2.66.87-3.27 1.57-.74 3.64 1.14 4.43 2.81.42.89.51 1.7.28 2.41zM24 10c1.71 0 3 2.15 3 5s-1.29 5-3 5-3-2.15-3-5 1.29-5 3-5zm-9 9v-8c0-.55.45-1 1-1s1 .45 1 1v7h2c.55 0 1 .45 1 1s-.45 1-1 1h-3c-.55 0-1-.45-1-1zm27 31H18c-.55 0-1-.45-1-1s.45-1 1-1h24c.55 0 1 .45 1 1s-.45 1-1 1zm0-5H18c-.55 0-1-.45-1-1s.45-1 1-1h24c.55 0 1 .45 1 1s-.45 1-1 1zm2-33h-2v7c0 .55-.45 1-1 1s-1-.45-1-1v-7h-2c-.55 0-1-.45-1-1s.45-1 1-1h6c.55 0 1 .45 1 1s-.45 1-1 1z" class="color3773b5 svgShape"></path><ellipse cx="24" cy="15" fill="#fd0000" rx="1" ry="3" class="color3773b5 svgShape"></ellipse></svg>